<svg xmlns="http://www.w3.org/2000/svg" version="1.1" xmlns:xlink="http://www.w3.org/1999/xlink" xmlns:svgjs="http://svgjs.dev/svgjs" width="1440" height="560" preserveAspectRatio="none" viewBox="0 0 1440 560"><g mask="url(&quot;#SvgjsMask1033&quot;)" fill="none"><rect width="1440" height="560" x="0" y="0" fill="rgba(10, 45, 82, 1)"></rect><path d="M 0,113 C 48,133.8 144,227.4 240,217 C 336,206.6 384,56.6 480,61 C 576,65.4 624,236 720,239 C 816,242 864,74.8 960,76 C 1056,77.2 1104,243 1200,245 C 1296,247 1392,117.8 1440,86L1440 560L0 560z" fill="#0a0630"></path><path d="M 0,532 C 96,497.8 288,371.8 480,361 C 672,350.2 768,485 960,478 C 1152,471 1344,356.4 1440,326L1440 560L0 560z" fill="#2264ab"></path></g><defs><mask id="SvgjsMask1033"><rect width="1440" height="560" fill="#ffffff"></rect></mask></defs></svg>